<svg width="29" height="26" viewBox="0 0 29 26" fill="none" xmlns="http://www.w3.org/2000/svg">
<mask id="path-1-outside-1" maskUnits="userSpaceOnUse" x="0" y="0" width="29" height="26" fill="black">
<rect fill="white" width="29" height="26"/>
<path d="M19.4247 11.8066C19.5281 12.0718 19.7003 12.3039 19.9069 12.5359C20.3202 12.9337 20.9056 13.1657 21.4911 13.1657C22.4209 13.1657 23.213 12.6354 23.5574 11.8066C23.6263 11.6077 23.5574 11.3757 23.3508 11.3094C23.1441 11.2431 22.9031 11.3094 22.8342 11.5083C22.6276 12.0387 22.0765 12.3702 21.4911 12.3702C21.1122 12.3702 20.7334 12.2376 20.4579 11.9724C20.3202 11.8398 20.2168 11.674 20.148 11.5083C20.0791 11.3094 19.838 11.2099 19.6314 11.3094C19.4592 11.3757 19.3559 11.6077 19.4247 11.8066ZM19.2181 9.65193C19.4247 9.65193 19.5969 9.48619 19.5969 9.25414V9.05525C19.5969 8.85635 19.4247 8.65746 19.2181 8.65746C19.0115 8.65746 18.8393 8.8232 18.8393 9.05525V9.25414C18.8393 9.45304 19.0115 9.65193 19.2181 9.65193ZM23.764 9.65193C23.9707 9.65193 24.1429 9.48619 24.1429 9.25414V9.05525C24.1429 8.85635 23.9707 8.65746 23.764 8.65746C23.5574 8.65746 23.3852 8.8232 23.3852 9.05525V9.25414C23.3852 9.45304 23.5574 9.65193 23.764 9.65193ZM10.023 11.8066C10.0918 11.6077 10.023 11.3757 9.81633 11.3094C9.60969 11.2431 9.36862 11.3094 9.29975 11.5083C9.09311 12.0387 8.54209 12.3702 7.95663 12.3702C7.57781 12.3702 7.19898 12.2376 6.92347 11.9724C6.78571 11.8398 6.6824 11.674 6.61352 11.5083C6.54464 11.3094 6.30357 11.2099 6.09694 11.3094C5.89031 11.4088 5.78699 11.6077 5.89031 11.8066C5.99362 12.0718 6.16582 12.3039 6.37245 12.5359C6.78571 12.9337 7.37117 13.1657 7.95663 13.1657C8.85204 13.1326 9.67857 12.6022 10.023 11.8066ZM6.0625 9.25414V9.05525C6.0625 8.85635 5.89031 8.65746 5.68367 8.65746C5.47704 8.65746 5.30485 8.8232 5.30485 9.05525V9.25414C5.30485 9.45304 5.47704 9.65193 5.68367 9.65193C5.89031 9.65193 6.0625 9.45304 6.0625 9.25414ZM10.2296 9.65193C10.4362 9.65193 10.6084 9.48619 10.6084 9.25414V9.05525C10.6084 8.85635 10.4362 8.65746 10.2296 8.65746C10.023 8.65746 9.85077 8.8232 9.85077 9.05525V9.25414C9.81633 9.45304 9.98852 9.65193 10.2296 9.65193ZM27.5867 6.53591C27.7934 6.53591 27.9656 6.37017 27.9656 6.13812V5.07735C27.9656 3.55249 26.6913 2.32597 25.1416 2.32597H24.625L24.5561 2.19337C24.2462 1.46409 23.523 1 22.6964 1H20.0791C17.2895 1 15.0166 3.22099 15.0166 5.90608V13.7293C15.0166 14.8564 15.9809 15.7845 17.1518 15.7845H19.4247V16.3149H10.0574V15.5856C10.5395 15.3536 10.9872 15.0884 11.3661 14.7238C12.1926 13.9613 12.7092 12.9669 12.8469 11.8729C13.639 11.8729 14.2934 11.2431 14.2934 10.4475V9.95028C14.2934 9.61878 14.1556 9.28729 13.949 9.05525L14.8444 5.57459C14.9133 5.37569 14.7755 5.14365 14.5689 5.1105C14.3622 5.0442 14.1556 5.1768 14.0867 5.37569L13.2602 8.62431C13.1569 8.59116 13.0191 8.55801 12.8814 8.55801V7.29834C12.8814 7.16575 12.8125 7.0663 12.7092 7C12.6059 6.9337 12.4681 6.90055 12.3648 6.9337C10.1952 7.56354 8.30102 7.53039 6.88903 6.83425C5.82143 6.30387 5.37372 5.57459 5.37372 5.57459C5.27041 5.40884 5.09821 5.34254 4.92602 5.37569C4.75383 5.40884 4.61607 5.57459 4.61607 5.74033C4.61607 6.70166 4.40944 6.90055 3.37628 6.96685C3.16964 6.96685 2.99745 7.1326 2.99745 7.36464V8.59116C2.85969 8.59116 2.72194 8.62431 2.58418 8.65746C2.41199 8.02762 2.30867 7.56354 2.27423 7.33149C2.20536 6.8674 2.2398 5.40884 2.27423 4.9116C2.27423 4.28177 2.79082 3.78453 3.44515 3.78453H4.03061C4.13393 3.78453 4.23725 3.75138 4.30612 3.68508L5.71811 2.32597C6.0625 1.99448 6.47577 1.86188 6.85459 1.96133L11.8138 3.12155C12.0893 3.18785 12.3304 3.22099 12.6059 3.22099C13.398 3.22099 14.1556 2.9558 14.7755 2.49171C14.7755 2.49171 14.8099 2.45856 14.8099 2.49171C14.8444 2.49171 14.8444 2.52486 14.8099 2.52486L14.5689 3.65193C14.5 3.85083 14.6378 4.04972 14.8444 4.11602C15.051 4.18232 15.2577 4.04972 15.3265 3.85083L15.6365 2.69061C15.7398 2.35912 15.602 1.99448 15.2921 1.82873C14.9821 1.62983 14.6033 1.66298 14.3278 1.86188C13.8457 2.22652 13.2602 2.42541 12.6747 2.42541C12.4681 2.42541 12.2615 2.39227 12.0548 2.35912L7.06122 1.1989C6.40689 1.03315 5.68367 1.23204 5.20153 1.69613L3.89286 2.98895H3.47959C2.37755 2.98895 1.51658 3.81768 1.51658 4.87845C1.51658 5.01105 1.4477 6.80111 1.51658 7.43094C1.55102 7.76243 1.68878 8.32597 1.92985 9.1547C1.72321 9.38674 1.6199 9.68508 1.6199 10.0166V10.5138C1.6199 11.2762 2.27423 11.9392 3.06633 11.9392C3.27296 13.5967 4.375 14.989 5.85587 15.6519V16.3812H5.02934C4.78827 16.3812 4.54719 16.4144 4.30612 16.4475C4.09949 16.116 3.7551 15.884 3.34184 15.884H2.37755C1.6199 15.884 1 16.4807 1 17.2099V19.2983C1 19.8287 1.34439 20.2928 1.79209 20.5249V24.6022C1.79209 24.8011 1.96429 25 2.17092 25H13.6735C13.8801 25 14.0523 24.8343 14.0523 24.6022V19.4972C14.0523 18.5691 13.6046 17.7072 12.9503 17.1436H19.3903V17.3425C19.3903 18.4365 21.1122 19.3978 21.2844 19.4972C21.3533 19.5304 21.4222 19.5304 21.4911 19.5304C21.5599 19.5304 21.6288 19.5304 21.6977 19.4972C21.9043 19.3978 23.5918 18.4365 23.5918 17.3425V17.1436H24.4184C25.7615 17.1436 26.8635 18.2044 26.8635 19.4972V24.2376H25.7615V21.6519C25.7615 21.453 25.5893 21.2541 25.3827 21.2541C25.176 21.2541 25.0038 21.4199 25.0038 21.6519V24.2376H18.0472V19.8287C18.0472 19.6298 17.875 19.4309 17.6684 19.4309H15.2921C15.0855 19.4309 14.9133 19.5967 14.9133 19.8287C14.9133 20.0276 15.0855 20.2265 15.2921 20.2265H17.2551V24.6354C17.2551 24.8343 17.4273 25.0331 17.6339 25.0331H27.2423C27.449 25.0331 27.6212 24.8674 27.6212 24.6354V19.4972C27.6212 17.7735 26.1747 16.3812 24.3839 16.3812H23.5574V15.8508H25.8304C27.0013 15.8508 27.9656 14.9227 27.9656 13.7956V7.96133C27.9656 7.76243 27.7934 7.56354 27.5867 7.56354C27.3801 7.56354 27.2079 7.72928 27.2079 7.96133V8.8232C27.0013 8.69061 26.7258 8.59116 26.4503 8.59116V6.73481C26.4503 5.83978 26.1747 5.01105 25.6582 4.28177C25.5893 4.18232 25.486 4.14917 25.3827 4.11602C25.2793 4.11602 25.176 4.11602 25.0727 4.21547C23.3508 5.60773 21.1467 6.37017 18.9082 6.37017C18.2883 6.37017 17.6684 6.30387 17.0485 6.20442C16.9452 6.17127 16.8074 6.20442 16.7385 6.27072C16.6352 6.33702 16.6008 6.43646 16.6008 6.56906C16.6008 6.63536 16.6008 6.70166 16.6008 6.76796V8.62431C16.3253 8.62431 16.0497 8.72376 15.8431 8.85635V5.93923C15.8431 3.65193 17.7717 1.79558 20.1135 1.79558H22.6964C23.1786 1.79558 23.6263 2.09392 23.8329 2.52486L24.0051 2.8895C24.074 3.0221 24.2117 3.12155 24.3839 3.12155H25.176C26.3125 3.12155 27.2079 4.01657 27.2079 5.1105V6.17127C27.2079 6.33702 27.3801 6.53591 27.5867 6.53591ZM3.82398 11.5083C3.82398 11.3094 3.65179 11.1436 3.44515 11.1436H3.06633C2.6875 11.1436 2.41199 10.8453 2.41199 10.5138V10.0166C2.41199 9.65193 2.72194 9.38674 3.06633 9.38674H3.41071C3.61735 9.38674 3.78954 9.22099 3.78954 8.98895V7.72928C4.61607 7.62983 5.06378 7.29834 5.27041 6.70166C5.54592 6.96685 5.92475 7.26519 6.44133 7.53039C8.30102 8.45856 10.4362 8.25967 12.0548 7.86188V8.9558C12.0548 9.1547 12.227 9.35359 12.4337 9.35359H12.7781C13.1569 9.35359 13.4324 9.65193 13.4324 9.98343V10.4807C13.4324 10.8453 13.1224 11.1105 12.7781 11.1105H12.4337C12.227 11.1105 12.0548 11.2762 12.0548 11.4751C11.986 12.5028 11.5383 13.4641 10.7806 14.1934C10.4018 14.558 9.95408 14.8232 9.47194 15.0221C8.9898 15.221 8.47321 15.3204 7.92219 15.3204C7.37117 15.3204 6.85459 15.221 6.37245 15.0221C6.37245 15.0221 6.37245 15.0221 6.33801 15.0221C4.92602 14.4254 3.89286 13.0994 3.82398 11.5083ZM9.26531 15.9171V17.3094C9.26531 17.6409 9.12755 17.9724 8.88648 18.2044C8.64541 18.4365 8.30102 18.5691 7.95663 18.5691C7.23342 18.5691 6.64796 18.0055 6.64796 17.3094V15.9171C7.06122 16.0166 7.50893 16.0829 7.95663 16.0829C8.40434 16.0829 8.8176 16.0166 9.26531 15.9171ZM1.79209 19.2983V17.2099C1.79209 16.8785 2.0676 16.6464 2.37755 16.6464H3.34184C3.51403 16.6464 3.68622 16.779 3.68622 16.9779V19.5635C3.68622 19.7293 3.54847 19.895 3.34184 19.895H2.37755C2.0676 19.895 1.79209 19.6298 1.79209 19.2983ZM13.2946 19.4972V24.2376H12.1926V21.6519C12.1926 21.453 12.0204 21.2541 11.8138 21.2541C11.6071 21.2541 11.4349 21.4199 11.4349 21.6519V24.2376H4.47832V21.6519C4.47832 21.453 4.30612 21.2541 4.09949 21.2541C3.89286 21.2541 3.72066 21.4199 3.72066 21.6519V24.2376H2.58418V20.6575H3.34184C3.96173 20.6575 4.44388 20.1602 4.44388 19.5635V17.1768C4.61607 17.1436 4.8227 17.1105 4.9949 17.1105H5.82143V17.3094C5.82143 18.4365 6.75128 19.3315 7.92219 19.3315C8.47321 19.3315 9.02423 19.1326 9.40306 18.7348C9.81633 18.337 10.023 17.8398 10.023 17.3094V17.1105H10.8495C12.227 17.1105 13.2946 18.1713 13.2946 19.4972ZM22.7997 17.3094C22.7997 17.7403 22.0765 18.337 21.4911 18.7017C20.9056 18.337 20.1824 17.7403 20.1824 17.3094V15.9171C20.5957 16.0166 21.0434 16.0829 21.4911 16.0829C21.9388 16.0829 22.3865 16.0166 22.7997 15.9171V17.3094ZM27.2079 13.7624C27.2079 14.4917 26.6224 15.0552 25.8648 15.0552H24.5561C24.6594 14.9558 24.7972 14.8564 24.9005 14.7569C25.727 13.9945 26.2436 13 26.3814 11.9061C26.6913 11.9061 26.9668 11.8066 27.1735 11.674V13.7624H27.2079ZM15.9464 10.0166C15.9464 9.65193 16.2564 9.38674 16.6008 9.38674H16.9452C17.1518 9.38674 17.324 9.22099 17.324 8.98895V7.03315C17.8406 7.09945 18.3571 7.1326 18.8393 7.1326C21.1122 7.1326 23.3508 6.40332 25.176 5.07735C25.4515 5.57459 25.5893 6.17127 25.5893 6.73481V8.9558C25.5893 9.1547 25.7615 9.35359 25.9681 9.35359H26.3125C26.6913 9.35359 26.9668 9.65193 26.9668 9.98343V10.4807C26.9668 10.8453 26.6569 11.1105 26.3125 11.1105H25.9681C25.7615 11.1105 25.5893 11.2762 25.5893 11.4751C25.5204 12.5028 25.0727 13.4641 24.3151 14.1934C23.9362 14.558 23.4885 14.8232 23.0064 15.0221C23.0064 15.0221 23.0064 15.0221 22.9719 15.0221C22.4898 15.221 21.9732 15.3204 21.4222 15.3204C20.8712 15.3204 20.3546 15.221 19.8724 15.0221C19.8724 15.0221 19.8724 15.0221 19.838 15.0221C18.3916 14.4586 17.3584 13.0994 17.2551 11.5083C17.2551 11.3094 17.0829 11.1436 16.8763 11.1436H16.5319C16.1531 11.1436 15.8776 10.8453 15.8776 10.5138V10.0166H15.9464ZM16.6008 11.9061C16.773 13.1989 17.4617 14.2928 18.426 15.0552H17.1173C16.3941 15.0552 15.7742 14.4917 15.7742 13.7624V11.674C16.0497 11.8066 16.3253 11.9061 16.6008 11.9061Z"/>
</mask>
<path d="M19.4247 11.8066C19.5281 12.0718 19.7003 12.3039 19.9069 12.5359C20.3202 12.9337 20.9056 13.1657 21.4911 13.1657C22.4209 13.1657 23.213 12.6354 23.5574 11.8066C23.6263 11.6077 23.5574 11.3757 23.3508 11.3094C23.1441 11.2431 22.9031 11.3094 22.8342 11.5083C22.6276 12.0387 22.0765 12.3702 21.4911 12.3702C21.1122 12.3702 20.7334 12.2376 20.4579 11.9724C20.3202 11.8398 20.2168 11.674 20.148 11.5083C20.0791 11.3094 19.838 11.2099 19.6314 11.3094C19.4592 11.3757 19.3559 11.6077 19.4247 11.8066ZM19.2181 9.65193C19.4247 9.65193 19.5969 9.48619 19.5969 9.25414V9.05525C19.5969 8.85635 19.4247 8.65746 19.2181 8.65746C19.0115 8.65746 18.8393 8.8232 18.8393 9.05525V9.25414C18.8393 9.45304 19.0115 9.65193 19.2181 9.65193ZM23.764 9.65193C23.9707 9.65193 24.1429 9.48619 24.1429 9.25414V9.05525C24.1429 8.85635 23.9707 8.65746 23.764 8.65746C23.5574 8.65746 23.3852 8.8232 23.3852 9.05525V9.25414C23.3852 9.45304 23.5574 9.65193 23.764 9.65193ZM10.023 11.8066C10.0918 11.6077 10.023 11.3757 9.81633 11.3094C9.60969 11.2431 9.36862 11.3094 9.29975 11.5083C9.09311 12.0387 8.54209 12.3702 7.95663 12.3702C7.57781 12.3702 7.19898 12.2376 6.92347 11.9724C6.78571 11.8398 6.6824 11.674 6.61352 11.5083C6.54464 11.3094 6.30357 11.2099 6.09694 11.3094C5.89031 11.4088 5.78699 11.6077 5.89031 11.8066C5.99362 12.0718 6.16582 12.3039 6.37245 12.5359C6.78571 12.9337 7.37117 13.1657 7.95663 13.1657C8.85204 13.1326 9.67857 12.6022 10.023 11.8066ZM6.0625 9.25414V9.05525C6.0625 8.85635 5.89031 8.65746 5.68367 8.65746C5.47704 8.65746 5.30485 8.8232 5.30485 9.05525V9.25414C5.30485 9.45304 5.47704 9.65193 5.68367 9.65193C5.89031 9.65193 6.0625 9.45304 6.0625 9.25414ZM10.2296 9.65193C10.4362 9.65193 10.6084 9.48619 10.6084 9.25414V9.05525C10.6084 8.85635 10.4362 8.65746 10.2296 8.65746C10.023 8.65746 9.85077 8.8232 9.85077 9.05525V9.25414C9.81633 9.45304 9.98852 9.65193 10.2296 9.65193ZM27.5867 6.53591C27.7934 6.53591 27.9656 6.37017 27.9656 6.13812V5.07735C27.9656 3.55249 26.6913 2.32597 25.1416 2.32597H24.625L24.5561 2.19337C24.2462 1.46409 23.523 1 22.6964 1H20.0791C17.2895 1 15.0166 3.22099 15.0166 5.90608V13.7293C15.0166 14.8564 15.9809 15.7845 17.1518 15.7845H19.4247V16.3149H10.0574V15.5856C10.5395 15.3536 10.9872 15.0884 11.3661 14.7238C12.1926 13.9613 12.7092 12.9669 12.8469 11.8729C13.639 11.8729 14.2934 11.2431 14.2934 10.4475V9.95028C14.2934 9.61878 14.1556 9.28729 13.949 9.05525L14.8444 5.57459C14.9133 5.37569 14.7755 5.14365 14.5689 5.1105C14.3622 5.0442 14.1556 5.1768 14.0867 5.37569L13.2602 8.62431C13.1569 8.59116 13.0191 8.55801 12.8814 8.55801V7.29834C12.8814 7.16575 12.8125 7.0663 12.7092 7C12.6059 6.9337 12.4681 6.90055 12.3648 6.9337C10.1952 7.56354 8.30102 7.53039 6.88903 6.83425C5.82143 6.30387 5.37372 5.57459 5.37372 5.57459C5.27041 5.40884 5.09821 5.34254 4.92602 5.37569C4.75383 5.40884 4.61607 5.57459 4.61607 5.74033C4.61607 6.70166 4.40944 6.90055 3.37628 6.96685C3.16964 6.96685 2.99745 7.1326 2.99745 7.36464V8.59116C2.85969 8.59116 2.72194 8.62431 2.58418 8.65746C2.41199 8.02762 2.30867 7.56354 2.27423 7.33149C2.20536 6.8674 2.2398 5.40884 2.27423 4.9116C2.27423 4.28177 2.79082 3.78453 3.44515 3.78453H4.03061C4.13393 3.78453 4.23725 3.75138 4.30612 3.68508L5.71811 2.32597C6.0625 1.99448 6.47577 1.86188 6.85459 1.96133L11.8138 3.12155C12.0893 3.18785 12.3304 3.22099 12.6059 3.22099C13.398 3.22099 14.1556 2.9558 14.7755 2.49171C14.7755 2.49171 14.8099 2.45856 14.8099 2.49171C14.8444 2.49171 14.8444 2.52486 14.8099 2.52486L14.5689 3.65193C14.5 3.85083 14.6378 4.04972 14.8444 4.11602C15.051 4.18232 15.2577 4.04972 15.3265 3.85083L15.6365 2.69061C15.7398 2.35912 15.602 1.99448 15.2921 1.82873C14.9821 1.62983 14.6033 1.66298 14.3278 1.86188C13.8457 2.22652 13.2602 2.42541 12.6747 2.42541C12.4681 2.42541 12.2615 2.39227 12.0548 2.35912L7.06122 1.1989C6.40689 1.03315 5.68367 1.23204 5.20153 1.69613L3.89286 2.98895H3.47959C2.37755 2.98895 1.51658 3.81768 1.51658 4.87845C1.51658 5.01105 1.4477 6.80111 1.51658 7.43094C1.55102 7.76243 1.68878 8.32597 1.92985 9.1547C1.72321 9.38674 1.6199 9.68508 1.6199 10.0166V10.5138C1.6199 11.2762 2.27423 11.9392 3.06633 11.9392C3.27296 13.5967 4.375 14.989 5.85587 15.6519V16.3812H5.02934C4.78827 16.3812 4.54719 16.4144 4.30612 16.4475C4.09949 16.116 3.7551 15.884 3.34184 15.884H2.37755C1.6199 15.884 1 16.4807 1 17.2099V19.2983C1 19.8287 1.34439 20.2928 1.79209 20.5249V24.6022C1.79209 24.8011 1.96429 25 2.17092 25H13.6735C13.8801 25 14.0523 24.8343 14.0523 24.6022V19.4972C14.0523 18.5691 13.6046 17.7072 12.9503 17.1436H19.3903V17.3425C19.3903 18.4365 21.1122 19.3978 21.2844 19.4972C21.3533 19.5304 21.4222 19.5304 21.4911 19.5304C21.5599 19.5304 21.6288 19.5304 21.6977 19.4972C21.9043 19.3978 23.5918 18.4365 23.5918 17.3425V17.1436H24.4184C25.7615 17.1436 26.8635 18.2044 26.8635 19.4972V24.2376H25.7615V21.6519C25.7615 21.453 25.5893 21.2541 25.3827 21.2541C25.176 21.2541 25.0038 21.4199 25.0038 21.6519V24.2376H18.0472V19.8287C18.0472 19.6298 17.875 19.4309 17.6684 19.4309H15.2921C15.0855 19.4309 14.9133 19.5967 14.9133 19.8287C14.9133 20.0276 15.0855 20.2265 15.2921 20.2265H17.2551V24.6354C17.2551 24.8343 17.4273 25.0331 17.6339 25.0331H27.2423C27.449 25.0331 27.6212 24.8674 27.6212 24.6354V19.4972C27.6212 17.7735 26.1747 16.3812 24.3839 16.3812H23.5574V15.8508H25.8304C27.0013 15.8508 27.9656 14.9227 27.9656 13.7956V7.96133C27.9656 7.76243 27.7934 7.56354 27.5867 7.56354C27.3801 7.56354 27.2079 7.72928 27.2079 7.96133V8.8232C27.0013 8.69061 26.7258 8.59116 26.4503 8.59116V6.73481C26.4503 5.83978 26.1747 5.01105 25.6582 4.28177C25.5893 4.18232 25.486 4.14917 25.3827 4.11602C25.2793 4.11602 25.176 4.11602 25.0727 4.21547C23.3508 5.60773 21.1467 6.37017 18.9082 6.37017C18.2883 6.37017 17.6684 6.30387 17.0485 6.20442C16.9452 6.17127 16.8074 6.20442 16.7385 6.27072C16.6352 6.33702 16.6008 6.43646 16.6008 6.56906C16.6008 6.63536 16.6008 6.70166 16.6008 6.76796V8.62431C16.3253 8.62431 16.0497 8.72376 15.8431 8.85635V5.93923C15.8431 3.65193 17.7717 1.79558 20.1135 1.79558H22.6964C23.1786 1.79558 23.6263 2.09392 23.8329 2.52486L24.0051 2.8895C24.074 3.0221 24.2117 3.12155 24.3839 3.12155H25.176C26.3125 3.12155 27.2079 4.01657 27.2079 5.1105V6.17127C27.2079 6.33702 27.3801 6.53591 27.5867 6.53591ZM3.82398 11.5083C3.82398 11.3094 3.65179 11.1436 3.44515 11.1436H3.06633C2.6875 11.1436 2.41199 10.8453 2.41199 10.5138V10.0166C2.41199 9.65193 2.72194 9.38674 3.06633 9.38674H3.41071C3.61735 9.38674 3.78954 9.22099 3.78954 8.98895V7.72928C4.61607 7.62983 5.06378 7.29834 5.27041 6.70166C5.54592 6.96685 5.92475 7.26519 6.44133 7.53039C8.30102 8.45856 10.4362 8.25967 12.0548 7.86188V8.9558C12.0548 9.1547 12.227 9.35359 12.4337 9.35359H12.7781C13.1569 9.35359 13.4324 9.65193 13.4324 9.98343V10.4807C13.4324 10.8453 13.1224 11.1105 12.7781 11.1105H12.4337C12.227 11.1105 12.0548 11.2762 12.0548 11.4751C11.986 12.5028 11.5383 13.4641 10.7806 14.1934C10.4018 14.558 9.95408 14.8232 9.47194 15.0221C8.9898 15.221 8.47321 15.3204 7.92219 15.3204C7.37117 15.3204 6.85459 15.221 6.37245 15.0221C6.37245 15.0221 6.37245 15.0221 6.33801 15.0221C4.92602 14.4254 3.89286 13.0994 3.82398 11.5083ZM9.26531 15.9171V17.3094C9.26531 17.6409 9.12755 17.9724 8.88648 18.2044C8.64541 18.4365 8.30102 18.5691 7.95663 18.5691C7.23342 18.5691 6.64796 18.0055 6.64796 17.3094V15.9171C7.06122 16.0166 7.50893 16.0829 7.95663 16.0829C8.40434 16.0829 8.8176 16.0166 9.26531 15.9171ZM1.79209 19.2983V17.2099C1.79209 16.8785 2.0676 16.6464 2.37755 16.6464H3.34184C3.51403 16.6464 3.68622 16.779 3.68622 16.9779V19.5635C3.68622 19.7293 3.54847 19.895 3.34184 19.895H2.37755C2.0676 19.895 1.79209 19.6298 1.79209 19.2983ZM13.2946 19.4972V24.2376H12.1926V21.6519C12.1926 21.453 12.0204 21.2541 11.8138 21.2541C11.6071 21.2541 11.4349 21.4199 11.4349 21.6519V24.2376H4.47832V21.6519C4.47832 21.453 4.30612 21.2541 4.09949 21.2541C3.89286 21.2541 3.72066 21.4199 3.72066 21.6519V24.2376H2.58418V20.6575H3.34184C3.96173 20.6575 4.44388 20.1602 4.44388 19.5635V17.1768C4.61607 17.1436 4.8227 17.1105 4.9949 17.1105H5.82143V17.3094C5.82143 18.4365 6.75128 19.3315 7.92219 19.3315C8.47321 19.3315 9.02423 19.1326 9.40306 18.7348C9.81633 18.337 10.023 17.8398 10.023 17.3094V17.1105H10.8495C12.227 17.1105 13.2946 18.1713 13.2946 19.4972ZM22.7997 17.3094C22.7997 17.7403 22.0765 18.337 21.4911 18.7017C20.9056 18.337 20.1824 17.7403 20.1824 17.3094V15.9171C20.5957 16.0166 21.0434 16.0829 21.4911 16.0829C21.9388 16.0829 22.3865 16.0166 22.7997 15.9171V17.3094ZM27.2079 13.7624C27.2079 14.4917 26.6224 15.0552 25.8648 15.0552H24.5561C24.6594 14.9558 24.7972 14.8564 24.9005 14.7569C25.727 13.9945 26.2436 13 26.3814 11.9061C26.6913 11.9061 26.9668 11.8066 27.1735 11.674V13.7624H27.2079ZM15.9464 10.0166C15.9464 9.65193 16.2564 9.38674 16.6008 9.38674H16.9452C17.1518 9.38674 17.324 9.22099 17.324 8.98895V7.03315C17.8406 7.09945 18.3571 7.1326 18.8393 7.1326C21.1122 7.1326 23.3508 6.40332 25.176 5.07735C25.4515 5.57459 25.5893 6.17127 25.5893 6.73481V8.9558C25.5893 9.1547 25.7615 9.35359 25.9681 9.35359H26.3125C26.6913 9.35359 26.9668 9.65193 26.9668 9.98343V10.4807C26.9668 10.8453 26.6569 11.1105 26.3125 11.1105H25.9681C25.7615 11.1105 25.5893 11.2762 25.5893 11.4751C25.5204 12.5028 25.0727 13.4641 24.3151 14.1934C23.9362 14.558 23.4885 14.8232 23.0064 15.0221C23.0064 15.0221 23.0064 15.0221 22.9719 15.0221C22.4898 15.221 21.9732 15.3204 21.4222 15.3204C20.8712 15.3204 20.3546 15.221 19.8724 15.0221C19.8724 15.0221 19.8724 15.0221 19.838 15.0221C18.3916 14.4586 17.3584 13.0994 17.2551 11.5083C17.2551 11.3094 17.0829 11.1436 16.8763 11.1436H16.5319C16.1531 11.1436 15.8776 10.8453 15.8776 10.5138V10.0166H15.9464ZM16.6008 11.9061C16.773 13.1989 17.4617 14.2928 18.426 15.0552H17.1173C16.3941 15.0552 15.7742 14.4917 15.7742 13.7624V11.674C16.0497 11.8066 16.3253 11.9061 16.6008 11.9061Z" fill="white"/>
<path d="M19.4247 11.8066C19.5281 12.0718 19.7003 12.3039 19.9069 12.5359C20.3202 12.9337 20.9056 13.1657 21.4911 13.1657C22.4209 13.1657 23.213 12.6354 23.5574 11.8066C23.6263 11.6077 23.5574 11.3757 23.3508 11.3094C23.1441 11.2431 22.9031 11.3094 22.8342 11.5083C22.6276 12.0387 22.0765 12.3702 21.4911 12.3702C21.1122 12.3702 20.7334 12.2376 20.4579 11.9724C20.3202 11.8398 20.2168 11.674 20.148 11.5083C20.0791 11.3094 19.838 11.2099 19.6314 11.3094C19.4592 11.3757 19.3559 11.6077 19.4247 11.8066ZM19.2181 9.65193C19.4247 9.65193 19.5969 9.48619 19.5969 9.25414V9.05525C19.5969 8.85635 19.4247 8.65746 19.2181 8.65746C19.0115 8.65746 18.8393 8.8232 18.8393 9.05525V9.25414C18.8393 9.45304 19.0115 9.65193 19.2181 9.65193ZM23.764 9.65193C23.9707 9.65193 24.1429 9.48619 24.1429 9.25414V9.05525C24.1429 8.85635 23.9707 8.65746 23.764 8.65746C23.5574 8.65746 23.3852 8.8232 23.3852 9.05525V9.25414C23.3852 9.45304 23.5574 9.65193 23.764 9.65193ZM10.023 11.8066C10.0918 11.6077 10.023 11.3757 9.81633 11.3094C9.60969 11.2431 9.36862 11.3094 9.29975 11.5083C9.09311 12.0387 8.54209 12.3702 7.95663 12.3702C7.57781 12.3702 7.19898 12.2376 6.92347 11.9724C6.78571 11.8398 6.6824 11.674 6.61352 11.5083C6.54464 11.3094 6.30357 11.2099 6.09694 11.3094C5.89031 11.4088 5.78699 11.6077 5.89031 11.8066C5.99362 12.0718 6.16582 12.3039 6.37245 12.5359C6.78571 12.9337 7.37117 13.1657 7.95663 13.1657C8.85204 13.1326 9.67857 12.6022 10.023 11.8066ZM6.0625 9.25414V9.05525C6.0625 8.85635 5.89031 8.65746 5.68367 8.65746C5.47704 8.65746 5.30485 8.8232 5.30485 9.05525V9.25414C5.30485 9.45304 5.47704 9.65193 5.68367 9.65193C5.89031 9.65193 6.0625 9.45304 6.0625 9.25414ZM10.2296 9.65193C10.4362 9.65193 10.6084 9.48619 10.6084 9.25414V9.05525C10.6084 8.85635 10.4362 8.65746 10.2296 8.65746C10.023 8.65746 9.85077 8.8232 9.85077 9.05525V9.25414C9.81633 9.45304 9.98852 9.65193 10.2296 9.65193ZM27.5867 6.53591C27.7934 6.53591 27.9656 6.37017 27.9656 6.13812V5.07735C27.9656 3.55249 26.6913 2.32597 25.1416 2.32597H24.625L24.5561 2.19337C24.2462 1.46409 23.523 1 22.6964 1H20.0791C17.2895 1 15.0166 3.22099 15.0166 5.90608V13.7293C15.0166 14.8564 15.9809 15.7845 17.1518 15.7845H19.4247V16.3149H10.0574V15.5856C10.5395 15.3536 10.9872 15.0884 11.3661 14.7238C12.1926 13.9613 12.7092 12.9669 12.8469 11.8729C13.639 11.8729 14.2934 11.2431 14.2934 10.4475V9.95028C14.2934 9.61878 14.1556 9.28729 13.949 9.05525L14.8444 5.57459C14.9133 5.37569 14.7755 5.14365 14.5689 5.1105C14.3622 5.0442 14.1556 5.1768 14.0867 5.37569L13.2602 8.62431C13.1569 8.59116 13.0191 8.55801 12.8814 8.55801V7.29834C12.8814 7.16575 12.8125 7.0663 12.7092 7C12.6059 6.9337 12.4681 6.90055 12.3648 6.9337C10.1952 7.56354 8.30102 7.53039 6.88903 6.83425C5.82143 6.30387 5.37372 5.57459 5.37372 5.57459C5.27041 5.40884 5.09821 5.34254 4.92602 5.37569C4.75383 5.40884 4.61607 5.57459 4.61607 5.74033C4.61607 6.70166 4.40944 6.90055 3.37628 6.96685C3.16964 6.96685 2.99745 7.1326 2.99745 7.36464V8.59116C2.85969 8.59116 2.72194 8.62431 2.58418 8.65746C2.41199 8.02762 2.30867 7.56354 2.27423 7.33149C2.20536 6.8674 2.2398 5.40884 2.27423 4.9116C2.27423 4.28177 2.79082 3.78453 3.44515 3.78453H4.03061C4.13393 3.78453 4.23725 3.75138 4.30612 3.68508L5.71811 2.32597C6.0625 1.99448 6.47577 1.86188 6.85459 1.96133L11.8138 3.12155C12.0893 3.18785 12.3304 3.22099 12.6059 3.22099C13.398 3.22099 14.1556 2.9558 14.7755 2.49171C14.7755 2.49171 14.8099 2.45856 14.8099 2.49171C14.8444 2.49171 14.8444 2.52486 14.8099 2.52486L14.5689 3.65193C14.5 3.85083 14.6378 4.04972 14.8444 4.11602C15.051 4.18232 15.2577 4.04972 15.3265 3.85083L15.6365 2.69061C15.7398 2.35912 15.602 1.99448 15.2921 1.82873C14.9821 1.62983 14.6033 1.66298 14.3278 1.86188C13.8457 2.22652 13.2602 2.42541 12.6747 2.42541C12.4681 2.42541 12.2615 2.39227 12.0548 2.35912L7.06122 1.1989C6.40689 1.03315 5.68367 1.23204 5.20153 1.69613L3.89286 2.98895H3.47959C2.37755 2.98895 1.51658 3.81768 1.51658 4.87845C1.51658 5.01105 1.4477 6.80111 1.51658 7.43094C1.55102 7.76243 1.68878 8.32597 1.92985 9.1547C1.72321 9.38674 1.6199 9.68508 1.6199 10.0166V10.5138C1.6199 11.2762 2.27423 11.9392 3.06633 11.9392C3.27296 13.5967 4.375 14.989 5.85587 15.6519V16.3812H5.02934C4.78827 16.3812 4.54719 16.4144 4.30612 16.4475C4.09949 16.116 3.7551 15.884 3.34184 15.884H2.37755C1.6199 15.884 1 16.4807 1 17.2099V19.2983C1 19.8287 1.34439 20.2928 1.79209 20.5249V24.6022C1.79209 24.8011 1.96429 25 2.17092 25H13.6735C13.8801 25 14.0523 24.8343 14.0523 24.6022V19.4972C14.0523 18.5691 13.6046 17.7072 12.9503 17.1436H19.3903V17.3425C19.3903 18.4365 21.1122 19.3978 21.2844 19.4972C21.3533 19.5304 21.4222 19.5304 21.4911 19.5304C21.5599 19.5304 21.6288 19.5304 21.6977 19.4972C21.9043 19.3978 23.5918 18.4365 23.5918 17.3425V17.1436H24.4184C25.7615 17.1436 26.8635 18.2044 26.8635 19.4972V24.2376H25.7615V21.6519C25.7615 21.453 25.5893 21.2541 25.3827 21.2541C25.176 21.2541 25.0038 21.4199 25.0038 21.6519V24.2376H18.0472V19.8287C18.0472 19.6298 17.875 19.4309 17.6684 19.4309H15.2921C15.0855 19.4309 14.9133 19.5967 14.9133 19.8287C14.9133 20.0276 15.0855 20.2265 15.2921 20.2265H17.2551V24.6354C17.2551 24.8343 17.4273 25.0331 17.6339 25.0331H27.2423C27.449 25.0331 27.6212 24.8674 27.6212 24.6354V19.4972C27.6212 17.7735 26.1747 16.3812 24.3839 16.3812H23.5574V15.8508H25.8304C27.0013 15.8508 27.9656 14.9227 27.9656 13.7956V7.96133C27.9656 7.76243 27.7934 7.56354 27.5867 7.56354C27.3801 7.56354 27.2079 7.72928 27.2079 7.96133V8.8232C27.0013 8.69061 26.7258 8.59116 26.4503 8.59116V6.73481C26.4503 5.83978 26.1747 5.01105 25.6582 4.28177C25.5893 4.18232 25.486 4.14917 25.3827 4.11602C25.2793 4.11602 25.176 4.11602 25.0727 4.21547C23.3508 5.60773 21.1467 6.37017 18.9082 6.37017C18.2883 6.37017 17.6684 6.30387 17.0485 6.20442C16.9452 6.17127 16.8074 6.20442 16.7385 6.27072C16.6352 6.33702 16.6008 6.43646 16.6008 6.56906C16.6008 6.63536 16.6008 6.70166 16.6008 6.76796V8.62431C16.3253 8.62431 16.0497 8.72376 15.8431 8.85635V5.93923C15.8431 3.65193 17.7717 1.79558 20.1135 1.79558H22.6964C23.1786 1.79558 23.6263 2.09392 23.8329 2.52486L24.0051 2.8895C24.074 3.0221 24.2117 3.12155 24.3839 3.12155H25.176C26.3125 3.12155 27.2079 4.01657 27.2079 5.1105V6.17127C27.2079 6.33702 27.3801 6.53591 27.5867 6.53591ZM3.82398 11.5083C3.82398 11.3094 3.65179 11.1436 3.44515 11.1436H3.06633C2.6875 11.1436 2.41199 10.8453 2.41199 10.5138V10.0166C2.41199 9.65193 2.72194 9.38674 3.06633 9.38674H3.41071C3.61735 9.38674 3.78954 9.22099 3.78954 8.98895V7.72928C4.61607 7.62983 5.06378 7.29834 5.27041 6.70166C5.54592 6.96685 5.92475 7.26519 6.44133 7.53039C8.30102 8.45856 10.4362 8.25967 12.0548 7.86188V8.9558C12.0548 9.1547 12.227 9.35359 12.4337 9.35359H12.7781C13.1569 9.35359 13.4324 9.65193 13.4324 9.98343V10.4807C13.4324 10.8453 13.1224 11.1105 12.7781 11.1105H12.4337C12.227 11.1105 12.0548 11.2762 12.0548 11.4751C11.986 12.5028 11.5383 13.4641 10.7806 14.1934C10.4018 14.558 9.95408 14.8232 9.47194 15.0221C8.9898 15.221 8.47321 15.3204 7.92219 15.3204C7.37117 15.3204 6.85459 15.221 6.37245 15.0221C6.37245 15.0221 6.37245 15.0221 6.33801 15.0221C4.92602 14.4254 3.89286 13.0994 3.82398 11.5083ZM9.26531 15.9171V17.3094C9.26531 17.6409 9.12755 17.9724 8.88648 18.2044C8.64541 18.4365 8.30102 18.5691 7.95663 18.5691C7.23342 18.5691 6.64796 18.0055 6.64796 17.3094V15.9171C7.06122 16.0166 7.50893 16.0829 7.95663 16.0829C8.40434 16.0829 8.8176 16.0166 9.26531 15.9171ZM1.79209 19.2983V17.2099C1.79209 16.8785 2.0676 16.6464 2.37755 16.6464H3.34184C3.51403 16.6464 3.68622 16.779 3.68622 16.9779V19.5635C3.68622 19.7293 3.54847 19.895 3.34184 19.895H2.37755C2.0676 19.895 1.79209 19.6298 1.79209 19.2983ZM13.2946 19.4972V24.2376H12.1926V21.6519C12.1926 21.453 12.0204 21.2541 11.8138 21.2541C11.6071 21.2541 11.4349 21.4199 11.4349 21.6519V24.2376H4.47832V21.6519C4.47832 21.453 4.30612 21.2541 4.09949 21.2541C3.89286 21.2541 3.72066 21.4199 3.72066 21.6519V24.2376H2.58418V20.6575H3.34184C3.96173 20.6575 4.44388 20.1602 4.44388 19.5635V17.1768C4.61607 17.1436 4.8227 17.1105 4.9949 17.1105H5.82143V17.3094C5.82143 18.4365 6.75128 19.3315 7.92219 19.3315C8.47321 19.3315 9.02423 19.1326 9.40306 18.7348C9.81633 18.337 10.023 17.8398 10.023 17.3094V17.1105H10.8495C12.227 17.1105 13.2946 18.1713 13.2946 19.4972ZM22.7997 17.3094C22.7997 17.7403 22.0765 18.337 21.4911 18.7017C20.9056 18.337 20.1824 17.7403 20.1824 17.3094V15.9171C20.5957 16.0166 21.0434 16.0829 21.4911 16.0829C21.9388 16.0829 22.3865 16.0166 22.7997 15.9171V17.3094ZM27.2079 13.7624C27.2079 14.4917 26.6224 15.0552 25.8648 15.0552H24.5561C24.6594 14.9558 24.7972 14.8564 24.9005 14.7569C25.727 13.9945 26.2436 13 26.3814 11.9061C26.6913 11.9061 26.9668 11.8066 27.1735 11.674V13.7624H27.2079ZM15.9464 10.0166C15.9464 9.65193 16.2564 9.38674 16.6008 9.38674H16.9452C17.1518 9.38674 17.324 9.22099 17.324 8.98895V7.03315C17.8406 7.09945 18.3571 7.1326 18.8393 7.1326C21.1122 7.1326 23.3508 6.40332 25.176 5.07735C25.4515 5.57459 25.5893 6.17127 25.5893 6.73481V8.9558C25.5893 9.1547 25.7615 9.35359 25.9681 9.35359H26.3125C26.6913 9.35359 26.9668 9.65193 26.9668 9.98343V10.4807C26.9668 10.8453 26.6569 11.1105 26.3125 11.1105H25.9681C25.7615 11.1105 25.5893 11.2762 25.5893 11.4751C25.5204 12.5028 25.0727 13.4641 24.3151 14.1934C23.9362 14.558 23.4885 14.8232 23.0064 15.0221C23.0064 15.0221 23.0064 15.0221 22.9719 15.0221C22.4898 15.221 21.9732 15.3204 21.4222 15.3204C20.8712 15.3204 20.3546 15.221 19.8724 15.0221C19.8724 15.0221 19.8724 15.0221 19.838 15.0221C18.3916 14.4586 17.3584 13.0994 17.2551 11.5083C17.2551 11.3094 17.0829 11.1436 16.8763 11.1436H16.5319C16.1531 11.1436 15.8776 10.8453 15.8776 10.5138V10.0166H15.9464ZM16.6008 11.9061C16.773 13.1989 17.4617 14.2928 18.426 15.0552H17.1173C16.3941 15.0552 15.7742 14.4917 15.7742 13.7624V11.674C16.0497 11.8066 16.3253 11.9061 16.6008 11.9061Z" stroke="white" stroke-width="0.4" mask="url(#path-1-outside-1)"/>
</svg>
